<?xml version="1.0" standalone="no"?>
<!DOCTYPE svg PUBLIC "-//W3C//DTD SVG 20010904//EN"
 "http://www.w3.org/TR/2001/REC-SVG-20010904/DTD/svg10.dtd">
<svg version="1.0" xmlns="http://www.w3.org/2000/svg"
 width="400.000000pt" height="400.000000pt" viewBox="0 0 400.000000 400.000000"
 preserveAspectRatio="xMidYMid meet">

<g transform="translate(0.000000,400.000000) scale(0.100000,-0.100000)"
fill="#000000" stroke="none">
<path d="M20 2000 l0 -1980 1980 0 1980 0 0 1980 0 1980 -1980 0 -1980 0 0
-1980z m1482 1073 c49 -49 94 -96 99 -106 8 -15 -46 -73 -347 -375 -257 -257
-362 -369 -376 -400 -30 -66 -34 -137 -12 -212 19 -64 22 -68 249 -298 127
-128 246 -243 265 -256 47 -30 125 -56 171 -56 21 0 64 10 96 21 54 20 82 46
421 386 l362 365 100 -99 c55 -55 100 -104 100 -109 0 -17 -734 -741 -779
-769 -25 -15 -76 -39 -115 -54 -62 -22 -86 -26 -191 -26 -128 0 -166 10 -287
71 -99 50 -648 617 -648 670 0 3 -6 20 -14 37 -27 59 -36 111 -36 207 1 116
11 162 57 260 33 71 54 94 411 453 207 207 378 377 381 377 2 0 44 -39 93 -87z
m1140 -176 c36 -14 90 -42 119 -63 74 -50 536 -516 581 -584 83 -127 111 -313
68 -464 -41 -146 -46 -152 -473 -580 l-358 -360 -99 99 c-55 55 -100 104 -100
110 0 5 159 169 354 365 396 398 400 404 400 525 0 111 -14 131 -293 408 -223
222 -251 247 -304 266 -77 28 -133 27 -204 -4 -51 -23 -104 -72 -413 -380
-196 -195 -360 -355 -365 -355 -6 0 -55 45 -110 100 l-99 99 375 373 c366 366
376 375 460 416 105 51 163 62 294 57 76 -3 117 -10 167 -28z"/>
</g>
</svg>
